<svg xmlns:xlink="http://www.w3.org/1999/xlink" xmlns="http://www.w3.org/2000/svg" version="1.1" viewBox="0 0 600 600" height="600px" width="600px">
    <title>404</title>
    <defs>
        <linearGradient id="linearGradient-1" y2="44.0501254%" x2="50%" y1="-29.88559%" x1="50%">
            <stop offset="0%" stop-color="#CFDFFA"></stop>
            <stop offset="100%" stop-opacity="0" stop-color="#EAF0FC"></stop>
        </linearGradient>
        <linearGradient id="linearGradient-2" y2="69.8229089%" x2="53.6226986%" y1="33.7484636%" x1="50%">
            <stop offset="0%" stop-color="#CFDFFA"></stop>
            <stop offset="100%" stop-opacity="0" stop-color="#EAF0FC"></stop>
        </linearGradient>
        <linearGradient id="linearGradient-3" y2="66.4977364%" x2="53.6226986%" y1="36.47456%" x1="50%">
            <stop offset="0%" stop-color="#CFDFFA"></stop>
            <stop offset="100%" stop-opacity="0" stop-color="#EAF0FC"></stop>
        </linearGradient>
        <linearGradient id="linearGradient-4" y2="100%" x2="57.28025%" y1="11.4973736%" x1="50%">
            <stop offset="0%" stop-color="#BFD4FA"></stop>
            <stop offset="100%" stop-color="#5792F0"></stop>
        </linearGradient>
        <linearGradient id="linearGradient-5" y2="131.881015%" x2="51.9400923%" y1="11.4973736%" x1="50%">
            <stop offset="0%" stop-color="#BFD4FA"></stop>
            <stop offset="100%" stop-color="#5792F0"></stop>
        </linearGradient>
        <linearGradient id="linearGradient-6" y2="128.49897%" x2="74.2827921%" y1="13.0877007%" x1="50%">
            <stop offset="0%" stop-color="#BFD4FA"></stop>
            <stop offset="100%" stop-color="#5792F0"></stop>
        </linearGradient>
        <linearGradient id="linearGradient-7" y2="131.881015%" x2="54.0733641%" y1="11.4973736%" x1="50%">
            <stop offset="0%" stop-color="#BFD4FA"></stop>
            <stop offset="100%" stop-color="#5792F0"></stop>
        </linearGradient>
        <linearGradient id="linearGradient-8" y2="131.881015%" x2="51.9795749%" y1="11.4973736%" x1="50%">
            <stop offset="0%" stop-color="#BFD4FA"></stop>
            <stop offset="100%" stop-color="#5792F0"></stop>
        </linearGradient>
        <linearGradient id="linearGradient-9" y2="131.881015%" x2="55.3643684%" y1="11.4973736%" x1="50%">
            <stop offset="0%" stop-color="#BFD4FA"></stop>
            <stop offset="100%" stop-color="#5792F0"></stop>
        </linearGradient>
        <linearGradient id="linearGradient-10" y2="53.7022797%" x2="74.2827921%" y1="48.2590898%" x1="50%">
            <stop offset="0%" stop-color="#BFD4FA"></stop>
            <stop offset="100%" stop-color="#5792F0"></stop>
        </linearGradient>
        <linearGradient id="linearGradient-11" y2="191.726229%" x2="53.9855026%" y1="-31.010887%" x1="46.5375425%">
            <stop offset="0%" stop-color="#BFD4FA"></stop>
            <stop offset="100%" stop-color="#5792F0"></stop>
        </linearGradient>
        <linearGradient id="linearGradient-12" y2="343.212805%" x2="135.340103%" y1="34.4664365%" x1="50%">
            <stop offset="0%" stop-color="#BFD4FA"></stop>
            <stop offset="100%" stop-color="#5792F0"></stop>
        </linearGradient>
        <linearGradient id="linearGradient-13" y2="64.9887855%" x2="74.2827921%" y1="42.9518753%" x1="50%">
            <stop offset="0%" stop-color="#BFD4FA"></stop>
            <stop offset="100%" stop-color="#5792F0"></stop>
        </linearGradient>
        <linearGradient id="linearGradient-14" y2="78.3505224%" x2="121.162449%" y1="40.8472157%" x1="17.9232767%">
            <stop offset="0%" stop-color="#BFD4FA"></stop>
            <stop offset="100%" stop-color="#5792F0"></stop>
        </linearGradient>
        <linearGradient id="linearGradient-15" y2="62.1965594%" x2="66.9811616%" y1="18.0201345%" x1="7.03701641%">
            <stop offset="0%" stop-color="#5792F0"></stop>
            <stop offset="100%" stop-color="#BFD4FA"></stop>
        </linearGradient>
        <linearGradient id="linearGradient-16" y2="93.8707843%" x2="53.8869097%" y1="-91.6326561%" x1="59.0710388%">
            <stop offset="0%" stop-color="#5792F0"></stop>
            <stop offset="100%" stop-opacity="0" stop-color="#BFD4FA"></stop>
        </linearGradient>
        <linearGradient id="linearGradient-17" y2="191.726229%" x2="85.8695235%" y1="-31.010887%" x1="18.8378827%">
            <stop offset="0%" stop-color="#BFD4FA"></stop>
            <stop offset="100%" stop-color="#5792F0"></stop>
        </linearGradient>
        <linearGradient id="linearGradient-18" y2="68.3098606%" x2="192.425043%" y1="39.8332823%" x1="17.0073319%">
            <stop offset="0%" stop-color="#BFD4FA"></stop>
            <stop offset="100%" stop-color="#5D96F1"></stop>
        </linearGradient>
        <linearGradient id="linearGradient-19" y2="68.320072%" x2="192.425043%" y1="39.8276123%" x1="17.0073319%">
            <stop offset="0%" stop-color="#BFD4FA"></stop>
            <stop offset="100%" stop-color="#5D96F1"></stop>
        </linearGradient>
        <linearGradient id="linearGradient-20" y2="68.3122034%" x2="192.425043%" y1="39.8319814%" x1="17.0073319%">
            <stop offset="0%" stop-color="#BFD4FA"></stop>
            <stop offset="100%" stop-color="#5D96F1"></stop>
        </linearGradient>
        <linearGradient id="linearGradient-21" y2="68.3089604%" x2="192.425043%" y1="39.8337821%" x1="17.0073319%">
            <stop offset="0%" stop-color="#BFD4FA"></stop>
            <stop offset="100%" stop-color="#5D96F1"></stop>
        </linearGradient>
        <linearGradient id="linearGradient-22" y2="100%" x2="68.6906422%" y1="-31.010887%" x1="36.672631%">
            <stop offset="0%" stop-color="#BFD4FA"></stop>
            <stop offset="100%" stop-color="#5792F0"></stop>
        </linearGradient>
        <linearGradient id="linearGradient-23" y2="100%" x2="68.6906422%" y1="-31.010887%" x1="36.672631%">
            <stop offset="0%" stop-color="#BFD4FA"></stop>
            <stop offset="100%" stop-color="#5792F0"></stop>
        </linearGradient>
        <linearGradient id="linearGradient-24" y2="100%" x2="68.094179%" y1="-31.010887%" x1="37.0979393%">
            <stop offset="0%" stop-color="#BFD4FA"></stop>
            <stop offset="100%" stop-color="#5792F0"></stop>
        </linearGradient>
        <linearGradient id="linearGradient-25" y2="53.8066949%" x2="100%" y1="46.1933051%" x1="-51.6160932%">
            <stop offset="0%" stop-color="#BFD4FA"></stop>
            <stop offset="100%" stop-color="#5792F0"></stop>
        </linearGradient>
        <linearGradient id="linearGradient-26" y2="100%" x2="50%" y1="-19.0038784%" x1="50%">
            <stop offset="0%" stop-color="#FFCDA5"></stop>
            <stop offset="100%" stop-color="#FFE8D1"></stop>
        </linearGradient>
        <linearGradient id="linearGradient-27" y2="100%" x2="50%" y1="0%" x1="50%">
            <stop offset="0%" stop-color="#FFF2DF"></stop>
            <stop offset="100%" stop-color="#FEE0BC"></stop>
        </linearGradient>
        <linearGradient id="linearGradient-28" y2="73.6326896%" x2="100%" y1="11.7098971%" x1="14.3474826%">
            <stop offset="0%" stop-color="#BFD4FA"></stop>
            <stop offset="100%" stop-color="#5792F0"></stop>
        </linearGradient>
        <linearGradient id="linearGradient-29" y2="100%" x2="59.1092742%" y1="-31.010887%" x1="43.5046289%">
            <stop offset="0%" stop-color="#BFD4FA"></stop>
            <stop offset="100%" stop-color="#5792F0"></stop>
        </linearGradient>
        <linearGradient id="linearGradient-30" y2="100%" x2="50%" y1="0%" x1="50%">
            <stop offset="0%" stop-color="#FEE127"></stop>
            <stop offset="100%" stop-color="#F9AB21"></stop>
        </linearGradient>
    </defs>
    <g fill-rule="evenodd" fill="none" stroke-width="1" stroke="none" id="404">
        <g transform="translate(60.000000, 149.000000)" id="背景">
            <ellipse ry="125" rx="240" cy="383" cx="240" fill="url(#linearGradient-1)" id="椭圆形"></ellipse>
            <path fill="url(#linearGradient-2)" id="云" d="M407,58.1060606 C407,65.3030303 400.090909,71.0606061 391.363636,71.0606061 L343,71.0606061 C334.272727,70.4848485 327,65.0151515 327,57.530303 C327,52.6363636 330.272727,48.3181818 335,46.0151515 C334.636364,45.1515152 334.272727,44.2878788 334.272727,43.4242424 C334.272727,38.530303 339,34.2121212 345.181818,34.2121212 C347.727273,34.2121212 349.909091,35.0757576 351.727273,36.2272727 C356.090909,29.6060606 364.090909,25 373.545455,25 C386.636364,25 397.181818,33.9242424 397.181818,44.8636364 L397.181818,46.0151515 C403,48.030303 407,52.6363636 407,58.1060606 Z"></path>
            <path fill="url(#linearGradient-3)" id="云" d="M83.1111111,0 C95.4472542,0 105.942032,7.88382384 109.831876,18.887904 L119.5,18.8888889 C129.164983,18.8888889 137,26.7239058 137,36.3888889 L137,40.2777778 C137,49.9427609 129.164983,57.7777778 119.5,57.7777778 L47.8333333,57.7777778 C39.1659376,57.7777778 31.9702379,51.4766979 30.5771453,43.2054489 C28.3142484,39.7253788 27,35.5717245 27,31.1111111 C27,18.8381167 36.9492278,8.88888889 49.2222222,8.88888889 C53.1889854,8.88888889 56.9129959,9.92823654 60.1367857,11.7494638 C65.2822134,4.63160868 73.6557772,0 83.1111111,0 Z"></path>
            <g transform="translate(85.000000, 285.000000)" id="草">
                <ellipse ry="2" rx="6.4" cy="39" cx="13.4" fill="#CCDCF6" id="椭圆形"></ellipse>
                <path fill-rule="nonzero" fill="url(#linearGradient-4)" id="路径-42" d="M6.60484923,38.2167348 C7.47636068,23.663125 11.1274012,15.239576 17.5579706,12.946088 C20.0896918,12.6080766 22.9113387,12.0998521 20.9439014,15.3808976 C18.9764641,18.661943 13.708028,17.3850711 8.43976651,38.2080599 C7.9632649,39.0983464 7.3516258,39.101238 6.60484923,38.2167348 Z"></path>
                <path fill-rule="nonzero" fill="url(#linearGradient-5)" id="路径-41" d="M6.48462669,38.0344018 C4.77372163,24.4410458 3.3734035,15.8924506 2.28367228,12.3886162 C0.649075451,7.13286456 -2.83128613,-2.9819845 4.412198,0.844719829 C11.6556821,4.67142416 12.5120839,24.3005649 9.1638425,36.2464988 C8.12313879,39.2693584 7.23006685,39.865326 6.48462669,38.0344018 Z"></path>
            </g>
            <g fill-rule="nonzero" transform="translate(343.060113, 257.713352)" id="草">
                <path fill="url(#linearGradient-6)" id="路径-43" d="M32.9288445,47.7215111 C31.6697734,41.9903277 27.9928319,37.9840272 21.8980202,35.7026096 C14.9379678,33.4652895 11.1247443,30.8058521 15.4799907,28.8775133 C19.157758,28.5851646 27.0011491,25.7209608 32.9288445,42.8291501 C33.3413817,44.4870209 33.3413817,46.1178079 32.9288445,47.7215111 Z"></path>
                <path fill="url(#linearGradient-7)" id="路径-44" d="M33.2382474,48.6305535 C29.572739,34.9480096 25.4087219,24.9585384 20.7461964,18.6621399 C17.3226294,14.3594206 17.5625238,8.202552 20.7461964,6.81093637 C24.005019,6.44853588 30.0111308,5.88801888 34.5334556,29.4686669 C34.8190764,31.0906371 36.4125824,40.5794978 34.5334556,46.70334 C34.2553159,47.5437876 33.8235798,48.1861921 33.2382474,48.6305535 Z"></path>
                <path fill="url(#linearGradient-8)" id="路径-45" d="M34.0848161,45.5402043 C35.7426747,39.4177315 35.5321916,31.4293155 33.4533666,21.5749561 C30.2735953,12.0220353 24.8460872,0.270898283 34.7387259,0 C38.7522158,0.54577434 43.5986093,4.75271743 41.767387,25.7196343 C40.6514617,34.1802042 38.7106608,39.1782681 36.6738532,45.5402043 C35.9633416,45.9368943 35.1003292,45.9368943 34.0848161,45.5402043 Z"></path>
                <path fill="url(#linearGradient-9)" id="路径-46" d="M36.0213612,47.9180155 C35.3577409,30.6060529 38.5261122,18.181998 45.5264751,10.6458508 C47.416863,8.12757072 54.6087295,5.76902471 54.5815797,13.6631979 C53.8307768,17.0576427 52.2242183,24.3043582 42.9601371,35.3607123 C39.908147,39.3512707 37.9023047,45.182586 37.8827536,46.5498132 C37.8697196,47.4612981 37.2492554,47.9173655 36.0213612,47.9180155 Z"></path>
                <path fill="url(#linearGradient-10)" id="路径-47" d="M0,50.2038554 C6.93219082,48.9118167 10.7551998,47.8149848 11.4690268,46.9133599 C12.5397674,45.5609225 21.9725049,39.7540136 27.8547213,44.6452546 C29.1351862,42.9996411 33.2417619,41.7195619 35.5918671,44.6452546 C36.6670542,40.0262048 43.3745332,37.0680138 46.2916845,37.5472523 C49.5768544,37.2901588 59.27517,37.3971252 60,50.2038554 C57.3539207,50.2654603 37.3539207,50.2654603 0,50.2038554 Z"></path>
            </g>
        </g>
        <g fill-rule="nonzero" transform="translate(66.958679, 133.100946)">
            <g transform="translate(0.000000, -0.000000)" id="无网络">
                <g transform="translate(188.300468, 226.463527) rotate(-20.000000) translate(-188.300468, -226.463527) translate(58.426186, 32.736448)" id="编组">
                    <polygon points="129.983518 4 135.17716 4 137.773981 37.3315034 127.386697 37.3315034" fill="url(#linearGradient-11)" id="路径"></polygon>
                    <rect rx="36.3554957" height="77.7735079" width="72.7109914" y="26.2210023" x="96.2248434" fill="url(#linearGradient-12)" id="矩形"></rect>
                    <ellipse ry="33.3315034" rx="77.9046337" cy="78.0147374" cx="133.94842" fill="url(#linearGradient-13)" id="椭圆形"></ellipse>
                    <ellipse ry="33.3315034" rx="77.9046337" cy="81.7735079" cx="132.580339" fill="url(#linearGradient-14)" id="椭圆形备份"></ellipse>
                    <ellipse ry="16.6657517" rx="46.7427802" cy="84.5511332" cx="132.580339" fill="url(#linearGradient-15)" id="椭圆形"></ellipse>
                    <polygon points="85.837559 81.7735079 179.323119 81.7735079 259.748565 387.454158 4.50591933e-16 346.026508" opacity="0.3" fill="url(#linearGradient-16)" id="路径"></polygon>
                    <ellipse ry="4" rx="3.73962772" cy="4" cx="132.580339" fill="url(#linearGradient-17)" id="椭圆形"></ellipse>
                </g>
                <path fill="url(#linearGradient-18)" id="路径" d="M245.365241,77.9582492 L245.365241,77.89482 C241.6092,67.3078173 229.386976,62.338824 219.009417,63.8645213 C226.700459,59.0812847 239.400262,57.805906 245.363123,65.1399 L245.363123,65.2033292 C251.324925,57.9327642 264.085088,59.1447138 271.71683,63.9279504 C261.33927,62.4611516 249.119164,67.4392063 245.363123,77.9582492 L245.365241,77.9582492 Z"></path>
                <path fill="url(#linearGradient-19)" id="路径" d="M262.45504,45.8356152 L262.45504,45.7953396 C260.247742,39.5623485 253.048056,36.6291762 246.940332,37.534682 C251.469188,34.71817 258.945436,33.9682112 262.456339,38.2860297 L262.456339,38.3235276 C265.962047,34.0432071 273.478546,34.7570568 277.972345,37.57218 C271.869815,36.7083385 264.66883,39.6373444 262.456339,45.8328376 L262.45504,45.8356152 Z"></path>
                <path fill="url(#linearGradient-20)" id="路径" d="M304.687276,40.6375803 L304.687276,40.6111929 C303.153853,36.2905968 298.166658,34.2615415 293.932541,34.8851184 C297.0708,32.9338366 302.254055,32.4130319 304.687276,35.4059231 L304.687276,35.4323105 C307.120498,32.4658067 312.327124,32.960224 315.442011,34.9115058 C311.207894,34.3129276 306.223296,36.3433716 304.687276,40.6375803 L304.687276,40.6375803 Z"></path>
                <path fill="url(#linearGradient-20)" id="路径" d="M282.614297,18.6948896 L282.614297,18.6685021 C281.080874,14.347906 276.093679,12.3188507 271.859562,12.9424276 C274.99782,10.9911459 280.181075,10.4703411 282.614297,13.4632324 L282.614297,13.4896198 C285.047518,10.523116 290.254144,11.0175333 293.369031,12.9688151 C289.134914,12.3702368 284.150316,14.4006809 282.614297,18.6948896 L282.614297,18.6948896 Z"></path>
                <path fill="url(#linearGradient-21)" id="路径" d="M341.638742,43.1079872 L341.638742,43.0899326 C340.576642,40.0956525 337.117677,38.6873965 334.183269,39.1207061 C336.359405,37.7680026 339.952107,37.4069113 341.638742,39.4817974 L341.638742,39.4998519 C343.326676,37.4430204 346.934959,37.7860571 349.094216,39.1387606 C346.159808,38.7221168 342.700842,40.1317617 341.638742,43.1079872 Z"></path>
            </g>
            <path transform="translate(154.992981, 160.004523) rotate(15.000000) translate(-154.992981, -160.004523)" fill="url(#linearGradient-22)" id="4" d="M163.281555,178.632453 L163.281555,169.306281 L166.382141,169.306281 L166.382141,164.496711 L163.281555,164.496711 L163.281555,141.376593 L158.179016,141.376593 L158.179016,164.496711 L151.05011,164.496711 C150.480448,164.496711 150.016581,164.358364 149.658508,164.081671 C149.186503,163.691046 148.950501,163.235317 148.950501,162.714484 C148.950501,162.535448 148.991191,162.152961 149.072571,161.567023 L149.072571,161.567023 L152.148743,141.376593 L147.095032,141.376593 L143.677063,163.300421 C143.628235,163.625942 143.603821,163.951463 143.603821,164.276984 C143.603821,165.351203 143.815409,166.221971 144.238586,166.889289 C145.263977,168.500617 146.639303,169.306281 148.364563,169.306281 L148.364563,169.306281 L158.179016,169.306281 L158.179016,178.632453 L163.281555,178.632453 Z"></path>
            <path transform="translate(173.173645, 247.246711) rotate(-15.000000) translate(-173.173645, -247.246711)" fill="url(#linearGradient-23)" id="4" d="M184.777649,273.325812 L184.777649,260.269171 L189.118469,260.269171 L189.118469,253.535773 L184.777649,253.535773 L184.777649,221.167609 L177.634094,221.167609 L177.634094,253.535773 L167.653626,253.535773 C166.856099,253.535773 166.206685,253.342088 165.705383,252.954718 C165.044576,252.407843 164.714172,251.769823 164.714172,251.040656 C164.714172,250.790005 164.771139,250.254523 164.885071,249.434211 L164.885071,249.434211 L169.191711,221.167609 L162.116516,221.167609 L157.33136,251.860968 C157.263001,252.316698 157.228821,252.772427 157.228821,253.228156 C157.228821,254.732062 157.525045,255.951138 158.117493,256.885382 C159.55304,259.141242 161.478495,260.269171 163.89386,260.269171 L163.89386,260.269171 L177.634094,260.269171 L177.634094,273.325812 L184.777649,273.325812 Z"></path>
            <path transform="translate(197.143860, 181.698859) rotate(15.000000) translate(-197.143860, -181.698859)" fill="url(#linearGradient-24)" id="0" d="M203.750305,204.125617 C204.551086,204.125617 205.45929,203.891242 206.474915,203.422492 C207.33429,203.031867 208.04718,202.553351 208.613586,201.986945 C209.961243,200.639289 210.635071,198.647101 210.635071,196.010382 L210.635071,196.010382 L210.635071,167.328742 C210.635071,165.180304 209.971008,163.285773 208.642883,161.645148 C207.353821,160.063117 205.342102,159.272101 202.607727,159.272101 L202.607727,159.272101 L191.006165,159.272101 C189.013977,159.272101 187.295227,160.024054 185.849915,161.527961 C184.385071,163.070929 183.652649,165.092414 183.652649,167.592414 L183.652649,167.592414 L183.652649,196.156867 C183.652649,198.578742 184.36554,200.483039 185.791321,201.869757 C187.353821,203.373664 189.316711,204.125617 191.679993,204.125617 L191.679993,204.125617 L203.750305,204.125617 Z M201.406555,198.354132 L192.73468,198.354132 C190.762024,198.354132 189.775696,197.318976 189.775696,195.248664 L189.775696,195.248664 L189.775696,167.358039 C189.775696,166.693976 190.019836,166.12757 190.508118,165.65882 C190.957336,165.248664 191.592102,165.043586 192.412415,165.043586 L192.412415,165.043586 L201.963196,165.043586 C203.662415,165.043586 204.512024,165.981086 204.512024,167.856086 L204.512024,167.856086 L204.512024,195.248664 C204.512024,196.381476 204.316711,197.172492 203.926086,197.621711 C203.476868,198.109992 202.637024,198.354132 201.406555,198.354132 L201.406555,198.354132 Z"></path>
            <path fill="url(#linearGradient-25)" id="Opps…" d="M288.209752,126.394083 C291.449752,126.394083 294.029752,125.344083 295.919752,123.244083 C297.719752,121.204083 298.619752,118.564083 298.619752,115.294083 C298.619752,111.994083 297.719752,109.324083 295.919752,107.314083 C294.029752,105.184083 291.449752,104.134083 288.209752,104.134083 C284.939752,104.134083 282.359752,105.184083 280.499752,107.344083 C278.699752,109.384083 277.829752,112.024083 277.829752,115.294083 C277.829752,118.534083 278.699752,121.174083 280.499752,123.214083 C282.359752,125.314083 284.939752,126.394083 288.209752,126.394083 Z M288.209752,123.514083 C285.929752,123.514083 284.159752,122.734083 282.899752,121.234083 C281.699752,119.764083 281.099752,117.784083 281.099752,115.294083 C281.099752,112.774083 281.699752,110.794083 282.899752,109.324083 C284.159752,107.764083 285.929752,107.014083 288.209752,107.014083 C290.489752,107.014083 292.259752,107.734083 293.489752,109.234083 C294.689752,110.704083 295.319752,112.714083 295.319752,115.294083 C295.319752,117.844083 294.689752,119.854083 293.489752,121.294083 C292.259752,122.764083 290.489752,123.514083 288.209752,123.514083 Z M304.799752,131.914083 L304.799752,123.694083 C306.059752,125.494083 307.619752,126.394083 309.539752,126.394083 C311.759752,126.394083 313.529752,125.584083 314.789752,123.964083 C315.959752,122.464083 316.559752,120.574083 316.559752,118.294083 C316.559752,115.894083 315.959752,113.974083 314.759752,112.474083 C313.439752,110.854083 311.669752,110.044083 309.389752,110.044083 C307.289752,110.044083 305.669752,110.794083 304.589752,112.324083 L304.589752,110.464083 L301.619752,110.464083 L301.619752,131.914083 L304.799752,131.914083 Z M308.819752,123.814083 C307.619752,123.814083 306.659752,123.334083 305.939752,122.404083 C305.099752,121.384083 304.709752,120.034083 304.709752,118.384083 L304.709752,118.114083 C304.709752,116.524083 305.039752,115.234083 305.699752,114.274083 C306.449752,113.164083 307.529752,112.624083 308.909752,112.624083 C310.469752,112.624083 311.609752,113.164083 312.359752,114.304083 C312.959752,115.264083 313.289752,116.584083 313.289752,118.294083 C313.289752,120.004083 312.929752,121.324083 312.269752,122.284083 C311.519752,123.304083 310.379752,123.814083 308.819752,123.814083 Z M322.739752,131.914083 L322.739752,123.694083 C323.999752,125.494083 325.559752,126.394083 327.479752,126.394083 C329.699752,126.394083 331.469752,125.584083 332.729752,123.964083 C333.899752,122.464083 334.499752,120.574083 334.499752,118.294083 C334.499752,115.894083 333.899752,113.974083 332.699752,112.474083 C331.379752,110.854083 329.609752,110.044083 327.329752,110.044083 C325.229752,110.044083 323.609752,110.794083 322.529752,112.324083 L322.529752,110.464083 L319.559752,110.464083 L319.559752,131.914083 L322.739752,131.914083 Z M326.759752,123.814083 C325.559752,123.814083 324.599752,123.334083 323.879752,122.404083 C323.039752,121.384083 322.649752,120.034083 322.649752,118.384083 L322.649752,118.114083 C322.649752,116.524083 322.979752,115.234083 323.639752,114.274083 C324.389752,113.164083 325.469752,112.624083 326.849752,112.624083 C328.409752,112.624083 329.549752,113.164083 330.299752,114.304083 C330.899752,115.264083 331.229752,116.584083 331.229752,118.294083 C331.229752,120.004083 330.869752,121.324083 330.209752,122.284083 C329.459752,123.304083 328.319752,123.814083 326.759752,123.814083 Z M343.499752,126.394083 C348.089752,126.394083 350.399752,124.744083 350.399752,121.474083 C350.399752,120.094083 349.769752,119.014083 348.539752,118.234083 C347.699752,117.694083 346.379752,117.184083 344.609752,116.764083 C343.049752,116.374083 342.029752,116.074083 341.489752,115.834083 C340.649752,115.444083 340.229752,114.994083 340.229752,114.454083 C340.229752,113.854083 340.499752,113.374083 341.069752,113.074083 C341.549752,112.774083 342.269752,112.654083 343.229752,112.654083 C344.309752,112.654083 345.149752,112.834083 345.689752,113.194083 C346.199752,113.524083 346.559752,114.094083 346.799752,114.934083 L349.889752,114.934083 C349.529752,111.664083 347.309752,110.044083 343.289752,110.044083 C341.429752,110.044083 339.899752,110.434083 338.729752,111.244083 C337.559752,112.024083 336.989752,113.134083 336.989752,114.544083 C336.989752,115.864083 337.589752,116.914083 338.789752,117.664083 C339.509752,118.144083 340.799752,118.594083 342.629752,119.014083 C344.219752,119.374083 345.269752,119.674083 345.749752,119.914083 C346.649752,120.334083 347.129752,120.934083 347.129752,121.684083 C347.129752,123.064083 345.869752,123.784083 343.409752,123.784083 C342.209752,123.784083 341.369752,123.574083 340.829752,123.184083 C340.289752,122.764083 339.899752,122.014083 339.719752,120.964083 L336.599752,120.964083 C336.959752,124.564083 339.239752,126.394083 343.499752,126.394083 Z M356.279752,125.974083 C356.879752,125.974083 357.419752,125.764083 357.869752,125.374083 C358.289752,124.954083 358.499752,124.444083 358.499752,123.814083 C358.499752,123.184083 358.289752,122.674083 357.869752,122.284083 C357.449752,121.864083 356.909752,121.684083 356.279752,121.684083 C355.679752,121.684083 355.169752,121.864083 354.749752,122.284083 C354.299752,122.674083 354.089752,123.184083 354.089752,123.814083 C354.089752,124.414083 354.299752,124.924083 354.749752,125.344083 C355.169752,125.764083 355.679752,125.974083 356.279752,125.974083 Z M366.299752,125.974083 C366.899752,125.974083 367.439752,125.764083 367.889752,125.374083 C368.309752,124.954083 368.519752,124.444083 368.519752,123.814083 C368.519752,123.184083 368.309752,122.674083 367.889752,122.284083 C367.469752,121.864083 366.929752,121.684083 366.299752,121.684083 C365.699752,121.684083 365.189752,121.864083 364.769752,122.284083 C364.319752,122.674083 364.109752,123.184083 364.109752,123.814083 C364.109752,124.414083 364.319752,124.924083 364.769752,125.344083 C365.189752,125.764083 365.699752,125.974083 366.299752,125.974083 Z M376.289752,125.974083 C376.889752,125.974083 377.429752,125.764083 377.849752,125.374083 C378.269752,124.954083 378.509752,124.444083 378.509752,123.814083 C378.509752,123.184083 378.299752,122.674083 377.879752,122.284083 C377.459752,121.864083 376.919752,121.684083 376.289752,121.684083 C375.689752,121.684083 375.149752,121.864083 374.729752,122.284083 C374.309752,122.674083 374.099752,123.184083 374.099752,123.814083 C374.099752,124.414083 374.309752,124.924083 374.729752,125.344083 C375.149752,125.764083 375.689752,125.974083 376.289752,125.974083 Z"></path>
        </g>
        <g transform="translate(317.870393, 362.000000)" id="人物">
            <ellipse ry="8" rx="25" cy="123" cx="32.129607" fill="#CCDCF6" id="椭圆形"></ellipse>
            <rect height="8" width="8" y="29" x="25.4424354" fill="url(#linearGradient-26)" id="矩形"></rect>
            <ellipse ry="2.5" rx="1.5" cy="22.5" cx="39.629607" transform="translate(39.629607, 22.500000) rotate(22.000000) translate(-39.629607, -22.500000)" fill="#FEE0BC" id="椭圆形"></ellipse>
            <ellipse ry="2.5" rx="1.5" cy="22.5" cx="18.629607" transform="translate(18.629607, 22.500000) scale(-1, 1) rotate(23.000000) translate(-18.629607, -22.500000)" fill="#FEE0BC" id="椭圆形备份-2"></ellipse>
            <circle r="10" cy="21" cx="29.4424354" fill="url(#linearGradient-27)" id="椭圆形"></circle>
            <path fill-rule="nonzero" fill="url(#linearGradient-28)" id="路径-52" d="M24.4446309,117.217681 L24.029983,119.927492 C22.3413104,119.980303 20.5049031,120.476682 18.520761,121.416628 C17.2439725,122.235798 17.1871461,122.606965 17.1460428,123.312306 C17.1186406,123.782534 20.7260748,123.782534 27.9683454,123.312306 L27.9683454,116.224557 L24.4446309,117.217681 Z"></path>
            <path transform="translate(41.557117, 119.944767) scale(-1, 1) translate(-41.557117, -119.944767)" fill-rule="nonzero" fill="url(#linearGradient-28)" id="路径-52备份" d="M43.4446309,117.217681 L43.029983,119.927492 C41.3413104,119.980303 39.5049031,120.476682 37.520761,121.416628 C36.2439725,122.235798 36.1871461,122.606965 36.1460428,123.312306 C36.1186406,123.782534 39.7260748,123.782534 46.9683454,123.312306 L46.9683454,116.224557 L43.4446309,117.217681 Z"></path>
            <polygon points="20.5853014 67.7083804 23.4716409 118.168923 29.129607 118.089185 31.5740237 71.5129716 35.3813036 118.069184 40.7008569 117.982737 42.1234713 67.8176404" fill-rule="nonzero" fill="url(#linearGradient-29)" id="路径-49"></polygon>
            <path fill="#FEE0BC" id="路径-50" d="M52.4424354,46.6878268 C53.1871734,46.0957469 53.9599424,45.8669144 54.7607424,46.0013293 C55.3015538,46.0136062 55.6120838,45.8794221 55.6923325,45.5987771 C56.6254166,45.4561332 56.9987506,45.6376415 56.8123346,46.143302 C56.6259185,46.6489624 56.391714,46.8304707 56.1097211,46.6878268 L57.394502,47.2766896 L58.6158508,46.4141943 C60.1277643,46.4318385 60.701089,46.9395353 60.3358249,47.9372847 C59.7025582,48.9798055 57.973383,50.2866109 55.6923325,49.1981656 C55.19212,48.8176077 54.7372554,48.6453211 54.3277389,48.6813058 L52.4424354,46.6878268 Z"></path>
            <path transform="translate(4.442435, 49.580033) scale(-1, 1) rotate(-19.000000) translate(-4.442435, -49.580033)" fill="#FEE0BC" id="路径-50备份" d="M0.442435369,48.6878268 C1.18717343,48.0957469 1.95994244,47.8669144 2.76074241,48.0013293 C3.30155382,48.0136062 3.61208384,47.8794221 3.69233246,47.5987771 C4.62541661,47.4561332 4.99875064,47.6376415 4.81233456,48.143302 C4.62591847,48.6489624 4.39171397,48.8304707 4.10972107,48.6878268 L5.39450198,49.2766896 L6.61585084,48.4141943 C8.12776434,48.4318385 8.70108902,48.9395353 8.33582487,49.9372847 C7.7025582,50.9798055 5.97338295,52.2866109 3.69233246,51.1981656 C3.19211997,50.8176077 2.73725544,50.6453211 2.32773886,50.6813058 L0.442435369,48.6878268 Z"></path>
            <path fill="url(#linearGradient-30)" id="路径-48" d="M25.1522967,32.6807844 L30.129607,35.9592576 L33.7346861,32.4858074 L44.5859612,36.5391615 L47.1884646,50.337481 L52.3796042,46 L55.8457626,49.1742604 L47.8080751,61.2459108 C45.5010688,63.7045639 43.7828548,63.7045639 42.6534332,61.2459108 C42.4014805,59.8124853 41.6776147,54.9257201 40.4818359,46.5856154 L42.791151,68.2790099 L19.9568218,68.5146537 L21.5497951,46.5939696 C21.2391077,56.5260079 19.7657117,61.4099883 17.129607,61.2459108 C15.2420323,60.7442742 11.3240945,57.8716244 5.37579387,52.6279616 L6.88459924,48.5799175 L14.0219352,52.33158 L15.508558,38.8615592 L25.1522967,32.6807844 Z"></path>
            <ellipse ry="3.5" rx="4.5" cy="3.5" cx="28.629607" fill="#483029" id="椭圆形"></ellipse>
            <path fill="#483029" id="路径-51" d="M18.0237531,22 C24.9577876,18.2373303 28.6948843,15.1162017 29.2350433,12.6366142 C30.4059806,16.0011496 37.5922292,21.2119046 40.4463335,21.1633873 C42.0253288,16.6100682 42.4623696,12.3236594 37.4758622,8.1437477 C32.4893548,3.96383601 26.7395443,3.94034865 20.4413887,8.1437477 C16.2069271,11.7030837 15.4010485,16.3218344 18.0237531,22 Z"></path>
        </g>
    </g>
</svg>