<svg xmlns:xlink="http://www.w3.org/1999/xlink" xmlns="http://www.w3.org/2000/svg" version="1.1" viewBox="0 0 600 600" height="600px" width="600px">
    <title>页面不见了</title>
    <defs>
        <linearGradient id="linearGradient-1" y2="44.0501254%" x2="50%" y1="-29.88559%" x1="50%">
            <stop offset="0%" stop-color="#CFDFFA"></stop>
            <stop offset="100%" stop-opacity="0" stop-color="#EAF0FC"></stop>
        </linearGradient>
        <linearGradient id="linearGradient-2" y2="69.8229089%" x2="53.6226986%" y1="33.7484636%" x1="50%">
            <stop offset="0%" stop-color="#CFDFFA"></stop>
            <stop offset="100%" stop-opacity="0" stop-color="#EAF0FC"></stop>
        </linearGradient>
        <linearGradient id="linearGradient-3" y2="66.4977364%" x2="53.6226986%" y1="36.47456%" x1="50%">
            <stop offset="0%" stop-color="#CFDFFA"></stop>
            <stop offset="100%" stop-opacity="0" stop-color="#EAF0FC"></stop>
        </linearGradient>
        <linearGradient id="linearGradient-4" y2="100%" x2="57.28025%" y1="11.4973736%" x1="50%">
            <stop offset="0%" stop-color="#BFD4FA"></stop>
            <stop offset="100%" stop-color="#5792F0"></stop>
        </linearGradient>
        <linearGradient id="linearGradient-5" y2="131.881015%" x2="51.9400923%" y1="11.4973736%" x1="50%">
            <stop offset="0%" stop-color="#BFD4FA"></stop>
            <stop offset="100%" stop-color="#5792F0"></stop>
        </linearGradient>
        <linearGradient id="linearGradient-6" y2="128.49897%" x2="74.2827921%" y1="13.0877007%" x1="50%">
            <stop offset="0%" stop-color="#BFD4FA"></stop>
            <stop offset="100%" stop-color="#5792F0"></stop>
        </linearGradient>
        <linearGradient id="linearGradient-7" y2="131.881015%" x2="54.0733641%" y1="11.4973736%" x1="50%">
            <stop offset="0%" stop-color="#BFD4FA"></stop>
            <stop offset="100%" stop-color="#5792F0"></stop>
        </linearGradient>
        <linearGradient id="linearGradient-8" y2="131.881015%" x2="51.9795749%" y1="11.4973736%" x1="50%">
            <stop offset="0%" stop-color="#BFD4FA"></stop>
            <stop offset="100%" stop-color="#5792F0"></stop>
        </linearGradient>
        <linearGradient id="linearGradient-9" y2="131.881015%" x2="55.3643684%" y1="11.4973736%" x1="50%">
            <stop offset="0%" stop-color="#BFD4FA"></stop>
            <stop offset="100%" stop-color="#5792F0"></stop>
        </linearGradient>
        <linearGradient id="linearGradient-10" y2="53.7022797%" x2="74.2827921%" y1="48.2590898%" x1="50%">
            <stop offset="0%" stop-color="#BFD4FA"></stop>
            <stop offset="100%" stop-color="#5792F0"></stop>
        </linearGradient>
        <linearGradient id="linearGradient-11" y2="56.4299862%" x2="50%" y1="31.1894006%" x1="4.78553268%">
            <stop offset="0%" stop-color="#5792F0"></stop>
            <stop offset="100%" stop-opacity="0" stop-color="#BFD4FA"></stop>
        </linearGradient>
        <linearGradient id="linearGradient-12" y2="56.2987028%" x2="50%" y1="31.5734636%" x1="4.78553268%">
            <stop offset="0%" stop-color="#5792F0"></stop>
            <stop offset="100%" stop-opacity="0" stop-color="#BFD4FA"></stop>
        </linearGradient>
        <linearGradient id="linearGradient-13" y2="59.4793792%" x2="50%" y1="22.2685555%" x1="4.78553268%">
            <stop offset="0%" stop-color="#5792F0"></stop>
            <stop offset="100%" stop-opacity="0" stop-color="#BFD4FA"></stop>
        </linearGradient>
        <linearGradient id="linearGradient-14" y2="106.768438%" x2="100%" y1="56.0433455%" x1="50%">
            <stop offset="0%" stop-color="#BFD4FA"></stop>
            <stop offset="100%" stop-color="#5792F0"></stop>
        </linearGradient>
        <linearGradient id="linearGradient-15" y2="82.0088473%" x2="100%" y1="31.493659%" x1="24.8382163%">
            <stop offset="0%" stop-color="#BFD4FA"></stop>
            <stop offset="100%" stop-color="#5792F0"></stop>
        </linearGradient>
        <linearGradient id="linearGradient-16" y2="150.378862%" x2="72.8112149%" y1="60.6859404%" x1="50%">
            <stop offset="0%" stop-color="#BFD4FA"></stop>
            <stop offset="100%" stop-color="#5792F0"></stop>
        </linearGradient>
        <linearGradient id="linearGradient-17" y2="150.378862%" x2="72.8112149%" y1="-8.03537495%" x1="38.5205829%">
            <stop offset="0%" stop-color="#BFD4FA"></stop>
            <stop offset="100%" stop-color="#5792F0"></stop>
        </linearGradient>
        <linearGradient id="linearGradient-18" y2="150.378862%" x2="95.9201389%" y1="-8.03537495%" x1="26.8913479%">
            <stop offset="0%" stop-color="#BFD4FA"></stop>
            <stop offset="100%" stop-color="#5792F0"></stop>
        </linearGradient>
        <linearGradient id="linearGradient-19" y2="73.6326896%" x2="100%" y1="11.7098971%" x1="14.3474826%">
            <stop offset="0%" stop-color="#BFD4FA"></stop>
            <stop offset="100%" stop-color="#5792F0"></stop>
        </linearGradient>
        <linearGradient id="linearGradient-20" y2="-24.285207%" x2="68.3293688%" y1="121.736838%" x1="26.3096272%">
            <stop offset="0%" stop-color="#5792F0"></stop>
            <stop offset="100%" stop-color="#BFD4FA"></stop>
        </linearGradient>
        <linearGradient id="linearGradient-21" y2="44.1197864%" x2="48.2269264%" y1="-31.4050544%" x1="24.9110731%">
            <stop offset="0%" stop-color="#BFD4FA"></stop>
            <stop offset="100%" stop-color="#5792F0"></stop>
        </linearGradient>
        <linearGradient id="linearGradient-22" y2="100%" x2="50%" y1="-19.0038784%" x1="50%">
            <stop offset="0%" stop-color="#FFCDA5"></stop>
            <stop offset="100%" stop-color="#FFE8D1"></stop>
        </linearGradient>
        <linearGradient id="linearGradient-23" y2="100%" x2="50%" y1="0%" x1="50%">
            <stop offset="0%" stop-color="#FFF2DF"></stop>
            <stop offset="100%" stop-color="#FEE0BC"></stop>
        </linearGradient>
        <linearGradient id="linearGradient-24" y2="100%" x2="50%" y1="0%" x1="50%">
            <stop offset="0%" stop-color="#FEE127"></stop>
            <stop offset="100%" stop-color="#F9AB21"></stop>
        </linearGradient>
    </defs>
    <g fill-rule="evenodd" fill="none" stroke-width="1" stroke="none" id="页面不见了">
        <g transform="translate(60.000000, 149.000000)" id="背景">
            <ellipse ry="125" rx="240" cy="383" cx="240" fill="url(#linearGradient-1)" id="椭圆形"></ellipse>
            <path fill="url(#linearGradient-2)" id="云" d="M407,58.1060606 C407,65.3030303 400.090909,71.0606061 391.363636,71.0606061 L343,71.0606061 C334.272727,70.4848485 327,65.0151515 327,57.530303 C327,52.6363636 330.272727,48.3181818 335,46.0151515 C334.636364,45.1515152 334.272727,44.2878788 334.272727,43.4242424 C334.272727,38.530303 339,34.2121212 345.181818,34.2121212 C347.727273,34.2121212 349.909091,35.0757576 351.727273,36.2272727 C356.090909,29.6060606 364.090909,25 373.545455,25 C386.636364,25 397.181818,33.9242424 397.181818,44.8636364 L397.181818,46.0151515 C403,48.030303 407,52.6363636 407,58.1060606 Z"></path>
            <path fill="url(#linearGradient-3)" id="云" d="M83.1111111,0 C95.4472542,0 105.942032,7.88382384 109.831876,18.887904 L119.5,18.8888889 C129.164983,18.8888889 137,26.7239058 137,36.3888889 L137,40.2777778 C137,49.9427609 129.164983,57.7777778 119.5,57.7777778 L47.8333333,57.7777778 C39.1659376,57.7777778 31.9702379,51.4766979 30.5771453,43.2054489 C28.3142484,39.7253788 27,35.5717245 27,31.1111111 C27,18.8381167 36.9492278,8.88888889 49.2222222,8.88888889 C53.1889854,8.88888889 56.9129959,9.92823654 60.1367857,11.7494638 C65.2822134,4.63160868 73.6557772,0 83.1111111,0 Z"></path>
            <g transform="translate(85.000000, 285.000000)" id="草">
                <ellipse ry="2" rx="6.4" cy="39" cx="13.4" fill="#CCDCF6" id="椭圆形"></ellipse>
                <path fill-rule="nonzero" fill="url(#linearGradient-4)" id="路径-42" d="M6.60484923,38.2167348 C7.47636068,23.663125 11.1274012,15.239576 17.5579706,12.946088 C20.0896918,12.6080766 22.9113387,12.0998521 20.9439014,15.3808976 C18.9764641,18.661943 13.708028,17.3850711 8.43976651,38.2080599 C7.9632649,39.0983464 7.3516258,39.101238 6.60484923,38.2167348 Z"></path>
                <path fill-rule="nonzero" fill="url(#linearGradient-5)" id="路径-41" d="M6.48462669,38.0344018 C4.77372163,24.4410458 3.3734035,15.8924506 2.28367228,12.3886162 C0.649075451,7.13286456 -2.83128613,-2.9819845 4.412198,0.844719829 C11.6556821,4.67142416 12.5120839,24.3005649 9.1638425,36.2464988 C8.12313879,39.2693584 7.23006685,39.865326 6.48462669,38.0344018 Z"></path>
            </g>
            <g fill-rule="nonzero" transform="translate(343.060113, 257.713352)" id="草">
                <path fill="url(#linearGradient-6)" id="路径-43" d="M32.9288445,47.7215111 C31.6697734,41.9903277 27.9928319,37.9840272 21.8980202,35.7026096 C14.9379678,33.4652895 11.1247443,30.8058521 15.4799907,28.8775133 C19.157758,28.5851646 27.0011491,25.7209608 32.9288445,42.8291501 C33.3413817,44.4870209 33.3413817,46.1178079 32.9288445,47.7215111 Z"></path>
                <path fill="url(#linearGradient-7)" id="路径-44" d="M33.2382474,48.6305535 C29.572739,34.9480096 25.4087219,24.9585384 20.7461964,18.6621399 C17.3226294,14.3594206 17.5625238,8.202552 20.7461964,6.81093637 C24.005019,6.44853588 30.0111308,5.88801888 34.5334556,29.4686669 C34.8190764,31.0906371 36.4125824,40.5794978 34.5334556,46.70334 C34.2553159,47.5437876 33.8235798,48.1861921 33.2382474,48.6305535 Z"></path>
                <path fill="url(#linearGradient-8)" id="路径-45" d="M34.0848161,45.5402043 C35.7426747,39.4177315 35.5321916,31.4293155 33.4533666,21.5749561 C30.2735953,12.0220353 24.8460872,0.270898283 34.7387259,0 C38.7522158,0.54577434 43.5986093,4.75271743 41.767387,25.7196343 C40.6514617,34.1802042 38.7106608,39.1782681 36.6738532,45.5402043 C35.9633416,45.9368943 35.1003292,45.9368943 34.0848161,45.5402043 Z"></path>
                <path fill="url(#linearGradient-9)" id="路径-46" d="M36.0213612,47.9180155 C35.3577409,30.6060529 38.5261122,18.181998 45.5264751,10.6458508 C47.416863,8.12757072 54.6087295,5.76902471 54.5815797,13.6631979 C53.8307768,17.0576427 52.2242183,24.3043582 42.9601371,35.3607123 C39.908147,39.3512707 37.9023047,45.182586 37.8827536,46.5498132 C37.8697196,47.4612981 37.2492554,47.9173655 36.0213612,47.9180155 Z"></path>
                <path fill="url(#linearGradient-10)" id="路径-47" d="M0,50.2038554 C6.93219082,48.9118167 10.7551998,47.8149848 11.4690268,46.9133599 C12.5397674,45.5609225 21.9725049,39.7540136 27.8547213,44.6452546 C29.1351862,42.9996411 33.2417619,41.7195619 35.5918671,44.6452546 C36.6670542,40.0262048 43.3745332,37.0680138 46.2916845,37.5472523 C49.5768544,37.2901588 59.27517,37.3971252 60,50.2038554 C57.3539207,50.2654603 37.3539207,50.2654603 0,50.2038554 Z"></path>
            </g>
        </g>
        <g fill-rule="nonzero" transform="translate(128.520343, 225.491232)" id="编组">
            <polygon points="62.1778906 223.022118 261.019264 325.768593 378.933352 270.866094 127.824289 212.177539" opacity="0.3" fill="url(#linearGradient-11)" id="Path-10"></polygon>
            <polygon points="204.199678 213.799924 423.350033 286.613659 439.904545 226.582578 269.846076 202.955345" opacity="0.3" fill="url(#linearGradient-12)" id="Path-10备份-2"></polygon>
            <polygon points="152.555391 203.65551 371.749848 295.24786 373.325952 256.438101 186.518442 199.120144" opacity="0.3" fill="url(#linearGradient-13)" id="Path-10备份"></polygon>
            <g transform="translate(60.723751, 129.118985)" id="编组-6">
                <g transform="translate(0.000000, 49.305861)" id="4">
                    <path fill="url(#linearGradient-14)" id="形状结合" d="M34.7083699,28.9021139 L34.6938169,36.2883046 L52.1817619,36.0959614 L52.1649825,50.6366925 L32.1744705,50.8514717 L32.1738169,44.5893046 L0.018816903,44.6230775 L0.018816903,28.9453477 L34.7083699,28.9021139 Z M62.8440695,28.4609139 L62.8440695,43.2164243 L53.6402298,43.2767496 L53.6402298,28.5212393 L62.8440695,28.4609139 Z M41.3289727,3.60530458 L42.4220923,22.8441287 L12.0463552,21.4244417 L41.3289727,3.60530458 Z"></path>
                    <polygon points="52.1827674 36.0907644 52.1827674 49.9541573 53.6286633 44.4823816 53.6394844 28.5217629" fill="#AFB7C3" id="路径-23"></polygon>
                    <polygon points="62.8462615 28.4573255 64.3413132 20.818715 64.355531 37.8054664 62.8421585 43.2588818" fill="#AFB7C3" id="路径-24"></polygon>
                    <path fill="url(#linearGradient-15)" d="M52.1827674,36.0907644 L53.6394844,28.5217629 L62.8462615,28.4573255 L64.3413132,20.7374679 L55.134536,20.7535772 L59.0830057,0.23759948 L39.4685674,2.09610107e-13 L1.61005561,20.2282202 L0,28.8971809 L33.6247514,28.6618443 L32.1680344,36.3332129 L52.1827674,36.0907644 Z M35.119803,20.7885975 L17.9071327,20.818715 L37.2282092,9.68530086 L35.119803,20.7885975 Z"></path>
                </g>
                <g transform="translate(74.365678, 0.000000)" id="0">
                    <path transform="translate(35.918986, 39.192719) rotate(15.000000) translate(-35.918986, -39.192719)" fill="url(#linearGradient-16)" d="M30.8170596,73.1976517 C33.0130345,73.4618291 34.7549544,73.5774067 36.0428194,73.5443846 C36.5051299,73.5443846 37.7517172,73.4783402 39.7825812,73.3462515 C41.8134452,73.2141628 43.3737431,73.0490519 44.463475,72.8509188 C45.553207,72.6527857 46.675961,72.3473306 47.8317373,71.9345533 C48.9875136,71.5217761 50.0937566,71.0181879 51.1504663,70.4237886 C52.207176,69.8293894 53.0822637,69.2432457 53.7757295,68.6653576 C54.4691953,68.0874695 55.1956832,67.2536595 55.9551933,66.1639276 C56.7147034,65.0741957 57.3668915,63.563431 57.9117574,61.6316335 C58.4566234,59.699836 58.7951007,58.1147715 58.9271894,56.8764397 C59.0592781,55.638108 59.1253225,53.7640994 59.1253225,51.2544138 L59.1253225,51.2544138 L59.1253225,24.6550486 C59.1253225,23.4992724 59.0510226,22.2939629 58.9024228,21.0391201 C58.753823,19.7842773 58.5474344,18.6862898 58.2832569,17.7451577 C58.0190795,16.8040256 57.6310689,15.7803381 57.1192251,14.6740951 C56.6073813,13.5678521 55.798338,12.4038203 54.692095,11.1819996 C53.585852,9.96017902 52.5043756,8.96951366 51.4476659,8.21000354 C50.3909562,7.45049343 49.251691,6.80656094 48.0298704,6.27820607 C46.8080498,5.74985121 45.4211182,5.37009615 43.8690758,5.1389409 C42.3170334,4.90778565 40.4347692,4.80871911 38.2222832,4.84174129 L38.2222832,4.84174129 L34.1605552,4.94080783 C31.35367,5.03987436 29.2485061,5.18847417 27.8450635,5.38660724 C26.4416209,5.58474032 24.9803895,6.03053973 23.4613692,6.72400549 C21.942349,7.41747125 20.6132063,8.25953681 19.4739411,9.25020218 C18.334676,10.2408675 17.4430771,11.1985107 16.7991446,12.1231317 C16.1552122,13.0477528 15.5443018,14.021907 14.9664137,15.0455946 C14.3885256,16.0692821 13.9179595,17.2663361 13.5547156,18.6367565 C13.1914716,20.007177 12.9107831,21.8976967 12.71265,24.3083158 L12.71265,24.3083158 L12.71265,51.3534803 C12.71265,52.9715671 12.803461,54.5070984 12.985083,55.9600743 C13.166705,57.4130501 13.5134378,59.0889257 14.0252816,60.987701 C14.5371254,62.8864763 15.3131466,64.4963075 16.3533452,65.8171947 C17.3935439,67.1380818 18.3924648,68.1947916 19.350108,68.9873239 C20.3077512,69.7798562 21.4222497,70.4815775 22.6936036,71.0924878 C23.9649575,71.7033981 25.0877116,72.140942 26.0618658,72.4051194 C27.0360201,72.6692968 28.6210847,72.9334742 30.8170596,73.1976517 Z M37.4297509,58.5853375 L36.8353517,58.5853375 C34.7549544,58.5853375 33.1616343,58.3129045 32.0553913,57.7680386 C30.9491483,57.2231726 29.9832496,56.4058737 29.1576951,55.3161418 C28.3321406,54.2264099 27.8202969,52.9137783 27.6221638,51.3782469 C27.4240307,49.8427156 27.3249642,48.1173068 27.3249642,46.2020204 L27.3249642,46.2020204 L27.2754309,28.6672434 C27.2424087,25.827336 27.473564,23.9120496 27.9688967,22.9213843 C28.4642294,21.9307189 28.9265399,21.1959754 29.3558282,20.7171538 C29.7851165,20.2383322 30.5033489,19.7677662 31.5105254,19.3054557 C32.5177018,18.8431452 33.384534,18.6119899 34.111022,18.6119899 L34.111022,18.6119899 L36.2904858,18.6615232 C37.809506,18.7275675 39.1303932,18.991745 40.2531472,19.4540555 C41.3759013,19.916366 42.2014558,20.4282097 42.7298107,20.9895868 C43.2581655,21.5509638 43.7122205,22.7232512 44.0919755,24.5064488 C44.4717306,26.2896465 44.6616081,27.9902887 44.6616081,29.6083755 L44.6616081,29.6083755 L44.6616081,46.4496867 C44.6616081,46.9780416 44.5707971,48.3236954 44.3891751,50.4866481 C44.2075532,52.6496008 43.9186091,54.1686211 43.5223429,55.0437088 C43.1260768,55.9187966 42.3583111,56.7278399 41.219046,57.470839 C40.0797808,58.213838 38.8166825,58.5853375 37.4297509,58.5853375 L37.4297509,58.5853375 Z"></path>
                    <path transform="translate(31.307889, 42.881597) rotate(15.000000) translate(-31.307889, -42.881597)" fill="url(#linearGradient-17)" d="M26.2059626,76.8865293 C28.4019375,77.1507067 30.1438575,77.2662843 31.4317224,77.2332621 C31.8940329,77.2332621 33.1406202,77.1672178 35.1714842,77.0351291 C37.2023482,76.9030404 38.7626462,76.7379295 39.8523781,76.5397964 C40.94211,76.3416633 42.0648641,76.0362082 43.2206403,75.6234309 C44.3764166,75.2106537 45.4826596,74.7070655 46.5393693,74.1126662 C47.596079,73.518267 48.4711668,72.9321233 49.1646325,72.3542352 C49.8580983,71.7763471 50.5845862,70.9425371 51.3440963,69.8528052 C52.1036064,68.7630732 52.7557945,67.2523086 53.3006604,65.3205111 C53.8455264,63.3887136 54.1840037,61.803649 54.3160924,60.5653173 C54.4481812,59.3269856 54.5142255,57.452977 54.5142255,54.9432914 L54.5142255,54.9432914 L54.5142255,28.3439262 C54.5142255,27.18815 54.4399256,25.9828404 54.2913258,24.7279976 C54.142726,23.4731548 53.9363374,22.3751674 53.6721599,21.4340353 C53.4079825,20.4929032 53.0199719,19.4692156 52.5081281,18.3629727 C51.9962844,17.2567297 51.187241,16.0926979 50.080998,14.8708772 C48.974755,13.6490566 47.8932786,12.6583912 46.8365689,11.8988811 C45.7798592,11.139371 44.640594,10.4954385 43.4187734,9.96708366 C42.1969528,9.4387288 40.8100213,9.05897374 39.2579788,8.82781849 C37.7059364,8.59666324 35.8236722,8.4975967 33.6111862,8.53061888 L33.6111862,8.53061888 L29.5494582,8.62968542 C26.742573,8.72875195 24.6374091,8.87735176 23.2339665,9.07548483 C21.8305239,9.2736179 20.3692925,9.71941732 18.8502723,10.4128831 C17.331252,11.1063488 16.0021093,11.9484144 14.8628442,12.9390798 C13.723579,13.9297451 12.8319802,14.8873883 12.1880477,15.8120093 C11.5441152,16.7366303 10.9332049,17.7107846 10.3553167,18.7344722 C9.7774286,19.7581597 9.30686255,20.9552137 8.94361858,22.3256341 C8.58037462,23.6960546 8.29968609,25.5865743 8.10155302,27.9971934 L8.10155302,27.9971934 L8.10155302,55.0423579 C8.10155302,56.6604447 8.19236401,58.195976 8.373986,59.6489519 C8.55560798,61.1019277 8.90234086,62.7778033 9.41418463,64.6765786 C9.92602841,66.5753539 10.7020496,68.1851851 11.7422482,69.5060723 C12.7824469,70.8269594 13.7813678,71.8836692 14.739011,72.6762015 C15.6966542,73.4687337 16.8111527,74.170455 18.0825066,74.7813654 C19.3538605,75.3922757 20.4766146,75.8298195 21.4507689,76.093997 C22.4249231,76.3581744 24.0099877,76.6223518 26.2059626,76.8865293 Z M32.818654,62.2742151 L32.2242547,62.2742151 C30.1438575,62.2742151 28.5505373,62.0017821 27.4442943,61.4569162 C26.3380513,60.9120502 25.3721526,60.0947513 24.5465981,59.0050194 C23.7210437,57.9152875 23.2091999,56.6026559 23.0110668,55.0671245 C22.8129337,53.5315932 22.7138672,51.8061844 22.7138672,49.890898 L22.7138672,49.890898 L22.6643339,32.356121 C22.6313118,29.5162136 22.862467,27.6009272 23.3577997,26.6102618 C23.8531324,25.6195965 24.3154429,24.884853 24.7447312,24.4060314 C25.1740195,23.9272098 25.8922519,23.4566438 26.8994284,22.9943333 C27.9066048,22.5320227 28.773437,22.3008675 29.499925,22.3008675 L29.499925,22.3008675 L31.6793888,22.3504008 C33.198409,22.4164451 34.5192962,22.6806226 35.6420502,23.1429331 C36.7648043,23.6052436 37.5903588,24.1170873 38.1187137,24.6784644 C38.6470685,25.2398414 39.1011235,26.4121288 39.4808785,28.1953264 C39.8606336,29.9785241 40.0505111,31.6791663 40.0505111,33.2972531 L40.0505111,33.2972531 L40.0505111,50.1385643 C40.0505111,50.6669192 39.9597001,52.012573 39.7780782,54.1755257 C39.5964562,56.3384784 39.3075121,57.8574987 38.911246,58.7325864 C38.5149798,59.6076741 37.7472142,60.4167175 36.607949,61.1597165 C35.4686838,61.9027156 34.2055855,62.2742151 32.818654,62.2742151 L32.818654,62.2742151 Z"></path>
                </g>
                <g transform="translate(144.788445, 39.872311)" id="4">
                    <path fill="url(#linearGradient-14)" id="形状结合" d="M34.7083699,28.9021139 L34.6938169,36.2883046 L52.1817619,36.0959614 L52.1649825,50.6366925 L32.1744705,50.8514717 L32.1738169,44.5893046 L0.018816903,44.6230775 L0.018816903,28.9453477 L34.7083699,28.9021139 Z M62.8440695,28.4609139 L62.8440695,43.2164243 L53.6402298,43.2767496 L53.6402298,28.5212393 L62.8440695,28.4609139 Z M41.3289727,3.60530458 L42.4220923,22.8441287 L12.0463552,21.4244417 L41.3289727,3.60530458 Z"></path>
                    <polygon points="52.1827674 36.0907644 52.1827674 49.9541573 53.6286633 44.4823816 53.6394844 28.5217629" fill="#AFB7C3" id="路径-23"></polygon>
                    <polygon points="62.8462615 28.4573255 64.3413132 20.818715 64.355531 37.8054664 62.8421585 43.2588818" fill="#AFB7C3" id="路径-24"></polygon>
                    <path fill="url(#linearGradient-15)" d="M52.1827674,36.0907644 L53.6394844,28.5217629 L62.8462615,28.4573255 L64.3413132,20.7374679 L55.134536,20.7535772 L59.0830057,0.23759948 L39.4685674,2.09610107e-13 L1.61005561,20.2282202 L0,28.8971809 L33.6247514,28.6618443 L32.1680344,36.3332129 L52.1827674,36.0907644 Z M35.119803,20.7885975 L17.9071327,20.818715 L37.2282092,9.68530086 L35.119803,20.7885975 Z"></path>
                </g>
            </g>
            <g fill="url(#linearGradient-18)" transform="translate(42.023726, 109.035887) rotate(32.000000) translate(-42.023726, -109.035887) translate(11.474404, 78.622893)" id="plane">
                <polygon points="33.2247618 43.3960964 45.693353 48.8095959 51.7603679 8.27972863 9.33827563 33.2872509 20.4694525 38.5575023 47.3654266 14.0287327 25.7718044 41.0486442 25.4851353 52.5462597" transform="translate(30.549322, 30.412994) scale(-1, 1) rotate(129.000000) translate(-30.549322, -30.412994)" id="路径"></polygon>
            </g>
            <path transform="translate(198.881793, 48.008272) rotate(-10.000000) translate(-198.881793, -48.008272)" stroke-dasharray="4" opacity="0.300000012" stroke="#5792F0" id="路径-25" d="M61.0125778,72.4470856 C76.6667619,47.6848361 97.4666587,37.8010985 123.412268,42.7958728 C140.588516,49.6716988 139.454583,58.3902526 139.225215,62.7175035 C136.027485,68.0709134 131.101048,74.1031159 119.351043,67.9230343 C113.247048,61.7258303 117.205879,44.6360169 126.001363,36.6224696 C128.653252,34.1828729 147.628573,10.753113 193.341137,33.2518755 C206.193556,39.702225 254.454938,97.4115965 313.703584,56.0225216 C322.031555,49.9303748 329.71403,42.3401595 336.751009,33.2518755"></path>
        </g>
        <g transform="translate(279.007194, 306.000000)" id="人物">
            <path transform="translate(21.492806, 89.093742) scale(-1, 1) rotate(-18.000000) translate(-21.492806, -89.093742)" fill-rule="nonzero" fill="url(#linearGradient-19)" id="路径-52备份-2" d="M23.0624703,86.825886 L22.7176475,89.0793761 C21.3133404,89.1232936 19.7861765,89.5360842 18.1361558,90.3177478 C17.0743733,90.9989728 17.0271163,91.3076365 16.9929346,91.8942014 C16.9701468,92.2852447 19.9701038,92.2852447 25.9928057,91.8942014 L25.9928057,86 L23.0624703,86.825886 Z"></path>
            <path transform="translate(28.492806, 91.093742) scale(-1, 1) rotate(-8.000000) translate(-28.492806, -91.093742)" fill-rule="nonzero" fill="url(#linearGradient-19)" id="路径-52备份" d="M30.0624703,88.825886 L29.7176475,91.0793761 C28.3133404,91.1232936 26.7861765,91.5360842 25.1361558,92.3177478 C24.0743733,92.9989728 24.0271163,93.3076365 23.9929346,93.8942014 C23.9701468,94.2852447 26.9701038,94.2852447 32.9928057,93.8942014 L32.9928057,88 L30.0624703,88.825886 Z"></path>
            <path fill-rule="nonzero" fill="url(#linearGradient-20)" id="路径-63" d="M21.1038132,44.1536316 C26.6059711,45.4393365 30.211395,47.0667391 31.9200847,49.0358395 C33.4002491,50.690254 33.1267015,53.2921151 32.3738863,55.8339197 C31.8720095,57.5284561 28.1498648,68.3659579 21.2074522,88.3464249 L15.9857276,86.4777442 C19.3676845,72.3646448 21.4571801,64.4012498 22.2542144,62.587559 C23.449766,59.8670229 23.0161861,54.3429038 21.1038132,52.0254257 C19.8288979,50.4804403 17.7895361,48.1583061 14.9857276,45.0590233 L21.1038132,44.1536316 Z"></path>
            <path fill-rule="nonzero" fill="url(#linearGradient-21)" id="路径-62" d="M9.36294916,47.114679 C8.24121671,51.9569785 8.67295717,55.3688082 10.6581705,57.3501684 C12.5717696,57.576773 16.1418214,57.8585238 21.3683259,58.1954206 C21.5687522,68.4226996 21.8229023,75.529914 22.130776,79.5170641 C22.4386497,83.5042141 22.7767121,86.9554762 23.1449631,89.8708503 L28.4682921,89.5854746 L29.7554633,59.3036696 C29.7310941,54.6345953 28.8299336,51.3903569 27.0519818,49.5709543 C25.27403,47.7515517 23.3388794,46.6648898 21.2465299,46.3109686 L9.36294916,47.114679 Z"></path>
            <path fill="#FEE0BC" id="胳膊-path" d="M2.96412499,32.6402265 L0.202463578,37.5135958 C0.202463578,37.5135958 -0.0578824924,37.9534478 0.0118753061,38.3734259 C0.0853701294,38.812903 0.487723145,39.1378858 0.487723145,39.1378858 L9.71433283,43.7439533 L9.77146169,39.7112309 L5.24869288,37.609091 L7.81976601,33.6914212 L2.96412499,32.6402265 Z"></path>
            <path fill="#FEE0BC" id="胳膊-path" d="M37.0408093,32.6402265 L39.7987337,37.5135958 C39.7987337,37.5135958 40.0578342,37.9534478 39.9880765,38.3734259 C39.9158271,38.812903 39.5134742,39.1378858 39.5134742,39.1378858 L30.3231222,43.9613784 L30.2409469,39.7112309 L34.7587328,37.609091 L32.1913968,33.6914212 L37.0408093,32.6402265 Z"></path>
            <g transform="translate(11.673809, 0.000000)" id="脑袋">
                <rect height="4.98347717" width="4.98347717" y="18.0651047" x="5.71256825" fill="url(#linearGradient-22)" id="矩形"></rect>
                <ellipse ry="1.55733662" rx="1" cy="14.0160295" cx="14.550249" transform="translate(14.550249, 14.016030) rotate(22.000000) translate(-14.550249, -14.016030)" fill="#FEE0BC" id="椭圆形"></ellipse>
                <ellipse ry="1.55733662" rx="1" cy="14.0160295" cx="1.46862144" transform="translate(1.468621, 14.016030) scale(-1, 1) rotate(23.000000) translate(-1.468621, -14.016030)" fill="#FEE0BC" id="椭圆形备份-2"></ellipse>
                <circle r="6.22934646" cy="13.0816276" cx="8.20430683" fill="url(#linearGradient-23)" id="椭圆形"></circle>
                <ellipse ry="2.18027126" rx="2.80320591" cy="2.18027126" cx="7.69796791" fill="#483029" id="椭圆形"></ellipse>
                <path fill="#483029" id="路径-51" d="M1.09121404,13.7045622 C5.41066433,11.3606649 7.73863136,9.41640579 8.07511512,7.87178482 C8.80453252,9.96767049 13.2810958,13.2136303 15.0590162,13.1834072 C16.0426271,10.3469869 16.3148749,7.6768344 13.2086067,5.07302259 C10.1023385,2.46921078 6.52058233,2.45457969 2.59724302,5.07302259 C-0.0405498459,7.29025628 -0.542559506,10.1674362 1.09121404,13.7045622 Z"></path>
            </g>
            <path fill="url(#linearGradient-24)" id="衣服" d="M17.3599737,20.6713323 C17.6927138,21.0306511 18.4889223,21.88748 19.7485993,23.2418189 C21.4699804,21.4350642 22.330671,20.5316869 22.330671,20.5316869 L27.2895457,21.6257456 C27.2895457,21.6257456 28.6509591,21.8541621 29.4812715,22.6775123 C31.775228,24.9520453 35.5802041,29.3715167 35.5802041,29.3715167 L38.2481752,32.3361777 C37.5837252,33.137822 36.8141612,33.8455109 35.9604523,34.4399611 C34.6214797,35.3595065 32.8162356,36.0661465 32.8162356,36.0661465 L30.7205069,34.0579328 L30.7205069,48.114679 L9.37549028,48.114679 L9.37549028,33.8660428 L8.13625504,35.3967836 C8.13625504,35.3967836 6.30108978,35.0377719 4.7052939,34.2491973 C3.64496149,33.6996031 2.65351343,33.0254672 1.75182482,32.2409833 L8.04150464,24.4950872 C8.43258388,24.0898027 8.84588864,23.7067206 9.27949317,23.3476258 C9.673448,23.0339733 10.0874083,22.7464851 10.5187284,22.4869984 C11.0450425,22.2593094 11.5861057,22.0676073 12.1382119,21.9132052 C14.0818414,21.3755633 17.3599737,20.6713323 17.3599737,20.6713323 Z"></path>
            <path fill="#483029" id="Fill-1633" d="M31,48.5307823 L9,48.5307823 L9,35.2172159 C9,34.5448824 9.55241449,34 10.2336006,34 L29.7663994,34 C30.447783,34 31,34.5448824 31,35.2172159 L31,48.5307823 Z"></path>
            <path fill="#483029" id="Fill-1634" d="M32,48 L8,48 L8,48.4219135 C8,48.5678784 8.13099806,48.6863646 8.29259097,48.6863646 L31.7076245,48.6863646 C31.8692174,48.6863646 32,48.5678784 32,48.4219135 L32,48 Z"></path>
        </g>
    </g>
</svg>